<svg xmlns="http://www.w3.org/2000/svg" width="28.991" height="29" viewBox="0 0 28.991 29">
  <path id="icons8-facebook" d="M7.451,4A3.462,3.462,0,0,0,4,7.451V29.539a3.462,3.462,0,0,0,3.451,3.451H19.07a.69.69,0,0,0,.225,0h3.916a.69.69,0,0,0,.225,0h6.1a3.462,3.462,0,0,0,3.451-3.451V7.451A3.462,3.462,0,0,0,29.539,4Zm0,1.381H29.539A2.061,2.061,0,0,1,31.61,7.451V29.539a2.061,2.061,0,0,1-2.071,2.071H24.017V21.947h2.637l.967-4.832h-3.6V15.734c0-.385.037-.415.166-.5a2.693,2.693,0,0,1,1.215-.191h2.071V11.157l-.394-.187a9.522,9.522,0,0,0-3.748-.758,4.542,4.542,0,0,0-3.645,1.639A6.138,6.138,0,0,0,18.5,15.734v1.381H16.425v4.832H18.5V31.61H7.451a2.061,2.061,0,0,1-2.071-2.071V7.451A2.061,2.061,0,0,1,7.451,5.381Zm15.876,6.212a7.264,7.264,0,0,1,2.761.484v1.587H25.4a3.478,3.478,0,0,0-1.967.414,1.951,1.951,0,0,0-.794,1.657V18.5h3.3l-.414,2.071H22.637V31.61H19.876V20.566H17.805V18.5h2.071V15.734a4.818,4.818,0,0,1,.884-3.02A3.046,3.046,0,0,1,23.327,11.593Z" transform="translate(-4 -4)" fill="#fff"/>
</svg>
