<svg xmlns="http://www.w3.org/2000/svg" width="29.315" height="29.315" viewBox="0 0 29.315 29.315">
  <path id="icons8-instagram" d="M13.62,5A8.654,8.654,0,0,0,5,13.62V25.7a8.654,8.654,0,0,0,8.62,8.62H25.7a8.654,8.654,0,0,0,8.62-8.62V13.62A8.654,8.654,0,0,0,25.7,5Zm0,2.665H25.7A5.947,5.947,0,0,1,31.65,13.62V25.7A5.947,5.947,0,0,1,25.7,31.65H13.62A5.947,5.947,0,0,1,7.665,25.7V13.62A5.947,5.947,0,0,1,13.62,7.665ZM27.528,10.58a1.208,1.208,0,1,0,1.208,1.208A1.2,1.2,0,0,0,27.528,10.58Zm-7.87,1.083a8,8,0,1,0,8,8A8.017,8.017,0,0,0,19.658,11.663Zm0,2.665a5.33,5.33,0,1,1-5.33,5.33A5.307,5.307,0,0,1,19.658,14.328Z" transform="translate(-5 -5)" fill="#fff"/>
</svg>
