<svg xmlns="http://www.w3.org/2000/svg" width="32.191" height="29" viewBox="0 0 32.191 29">
  <path id="icons8-телеграмма-app" d="M31.46,2.985a3.923,3.923,0,0,0-1.267.3c-.346.136-1.591.659-3.572,1.49s-4.606,1.933-7.4,3.109c-5.6,2.354-11.885,5-15.107,6.357a3.859,3.859,0,0,0-1.056.563A2.836,2.836,0,0,0,2,16.913a2.791,2.791,0,0,0,.8,1.893,3.6,3.6,0,0,0,1.254.77c1.087.433,4.445,1.774,5.9,2.358.511,1.532,1.712,5.142,1.993,6.03h0a4.779,4.779,0,0,0,.761,1.588,2.193,2.193,0,0,0,.566.516,1.865,1.865,0,0,0,.28.135c.013.006.027.007.041.013l-.038-.009c.028.011.053.028.082.038a1.093,1.093,0,0,0,.141.028,2.183,2.183,0,0,0,2.056-.362l.034-.025,3.779-3.2,4.628,4.279a2.709,2.709,0,0,0,2.279,1.015,2.956,2.956,0,0,0,2.1-.924,3.047,3.047,0,0,0,.88-1.619V29.43c.09-.467,4.534-22.772,4.534-22.772l-.009.038a3.716,3.716,0,0,0,.016-1.817,2.607,2.607,0,0,0-1.132-1.509A2.657,2.657,0,0,0,31.46,2.985ZM30.825,6.51c-.175.876-4.129,20.743-4.386,22.062l-4.6-4.248a3.239,3.239,0,0,0-4.263-.094l-2.345,1.984,1.251-4.892s8.632-8.738,9.152-9.247c.419-.407.506-.55.506-.692a.292.292,0,0,0-.321-.324,1.486,1.486,0,0,0-.619.283c-1.849,1.153-9.765,5.664-13.6,7.844a3.182,3.182,0,0,0-.443-.239c-1.258-.5-3.675-1.473-5.09-2.037l14.393-6.055c2.8-1.177,5.422-2.279,7.4-3.109C29.537,7.045,30.409,6.682,30.825,6.51ZM26.389,28.8h0l0,.013C26.392,28.8,26.387,28.814,26.389,28.8Z" transform="translate(-2.004 -2.983)" fill="#fff"/>
</svg>
